<svg id="visual" xmlns="http://www.w3.org/2000/svg"
    xmlns:xlink="http://www.w3.org/1999/xlink" version="1.1">
        <path
            d="M0 198.6C-35 193.6 -70 188.5 -99.3 172C-128.7 155.5 -152.4 127.6 -168 97C-183.6 66.4 -191.1 33.2 -198.6 0L0 0Z"
            fill="#0c1c30"></path>
        <path
            d="M0 173.8C-30.6 169.4 -61.2 164.9 -86.9 150.5C-112.6 136.1 -133.3 111.6 -147 84.9C-160.7 58.1 -167.2 29.1 -173.8 0L0 0Z"
            fill="#312c4f"></path>
        <path
            d="M0 149C-26.2 145.2 -52.5 141.4 -74.5 129C-96.5 116.6 -114.3 95.7 -126 72.8C-137.7 49.8 -143.3 24.9 -149 0L0 0Z"
            fill="#623965"></path>
        <path
            d="M0 124.1C-21.9 121 -43.7 117.8 -62.1 107.5C-80.4 97.2 -95.2 79.7 -105 60.6C-114.8 41.5 -119.5 20.8 -124.1 0L0 0Z"
            fill="#96446e"></path>
        <path
            d="M0 99.3C-17.5 96.8 -35 94.3 -49.7 86C-64.3 77.8 -76.2 63.8 -84 48.5C-91.8 33.2 -95.6 16.6 -99.3 0L0 0Z"
            fill="#c55469"></path>
        <path
            d="M0 74.5C-13.1 72.6 -26.2 70.7 -37.2 64.5C-48.2 58.3 -57.1 47.8 -63 36.4C-68.9 24.9 -71.7 12.5 -74.5 0L0 0Z"
            fill="#e9705a"></path>
        <path
            d="M0 49.7C-8.7 48.4 -17.5 47.1 -24.8 43C-32.2 38.9 -38.1 31.9 -42 24.3C-45.9 16.6 -47.8 8.3 -49.7 0L0 0Z"
            fill="#fa9845"></path>
        <path
            d="M0 24.8C-4.4 24.2 -8.7 23.6 -12.4 21.5C-16.1 19.4 -19 15.9 -21 12.1C-23 8.3 -23.9 4.2 -24.8 0L0 0Z"
            fill="#fbae3c"></path>
</svg>