<svg id="visual" viewBox="0 0 675 900" width="675" height="900" xmlns="http://www.w3.org/2000/svg" xmlns:xlink="http://www.w3.org/1999/xlink" version="1.1"><rect x="0" y="0" width="675" height="900" fill="#001220"></rect><defs><linearGradient id="grad1_0" x1="0%" y1="0%" x2="100%" y2="100%"><stop offset="30%" stop-color="#fbae3c" stop-opacity="1"></stop><stop offset="70%" stop-color="#fbae3c" stop-opacity="1"></stop></linearGradient></defs><defs><linearGradient id="grad1_1" x1="0%" y1="0%" x2="100%" y2="100%"><stop offset="30%" stop-color="#fbae3c" stop-opacity="1"></stop><stop offset="70%" stop-color="#f48350" stop-opacity="1"></stop></linearGradient></defs><defs><linearGradient id="grad1_2" x1="0%" y1="0%" x2="100%" y2="100%"><stop offset="30%" stop-color="#d96162" stop-opacity="1"></stop><stop offset="70%" stop-color="#f48350" stop-opacity="1"></stop></linearGradient></defs><defs><linearGradient id="grad1_3" x1="0%" y1="0%" x2="100%" y2="100%"><stop offset="30%" stop-color="#d96162" stop-opacity="1"></stop><stop offset="70%" stop-color="#af4b6d" stop-opacity="1"></stop></linearGradient></defs><defs><linearGradient id="grad1_4" x1="0%" y1="0%" x2="100%" y2="100%"><stop offset="30%" stop-color="#7c3e6b" stop-opacity="1"></stop><stop offset="70%" stop-color="#af4b6d" stop-opacity="1"></stop></linearGradient></defs><defs><linearGradient id="grad1_5" x1="0%" y1="0%" x2="100%" y2="100%"><stop offset="30%" stop-color="#7c3e6b" stop-opacity="1"></stop><stop offset="70%" stop-color="#49335c" stop-opacity="1"></stop></linearGradient></defs><defs><linearGradient id="grad1_6" x1="0%" y1="0%" x2="100%" y2="100%"><stop offset="30%" stop-color="#1d2540" stop-opacity="1"></stop><stop offset="70%" stop-color="#49335c" stop-opacity="1"></stop></linearGradient></defs><defs><linearGradient id="grad1_7" x1="0%" y1="0%" x2="100%" y2="100%"><stop offset="30%" stop-color="#1d2540" stop-opacity="1"></stop><stop offset="70%" stop-color="#001220" stop-opacity="1"></stop></linearGradient></defs><defs><linearGradient id="grad2_0" x1="0%" y1="0%" x2="100%" y2="100%"><stop offset="30%" stop-color="#fbae3c" stop-opacity="1"></stop><stop offset="70%" stop-color="#fbae3c" stop-opacity="1"></stop></linearGradient></defs><defs><linearGradient id="grad2_1" x1="0%" y1="0%" x2="100%" y2="100%"><stop offset="30%" stop-color="#f48350" stop-opacity="1"></stop><stop offset="70%" stop-color="#fbae3c" stop-opacity="1"></stop></linearGradient></defs><defs><linearGradient id="grad2_2" x1="0%" y1="0%" x2="100%" y2="100%"><stop offset="30%" stop-color="#f48350" stop-opacity="1"></stop><stop offset="70%" stop-color="#d96162" stop-opacity="1"></stop></linearGradient></defs><defs><linearGradient id="grad2_3" x1="0%" y1="0%" x2="100%" y2="100%"><stop offset="30%" stop-color="#af4b6d" stop-opacity="1"></stop><stop offset="70%" stop-color="#d96162" stop-opacity="1"></stop></linearGradient></defs><defs><linearGradient id="grad2_4" x1="0%" y1="0%" x2="100%" y2="100%"><stop offset="30%" stop-color="#af4b6d" stop-opacity="1"></stop><stop offset="70%" stop-color="#7c3e6b" stop-opacity="1"></stop></linearGradient></defs><defs><linearGradient id="grad2_5" x1="0%" y1="0%" x2="100%" y2="100%"><stop offset="30%" stop-color="#49335c" stop-opacity="1"></stop><stop offset="70%" stop-color="#7c3e6b" stop-opacity="1"></stop></linearGradient></defs><defs><linearGradient id="grad2_6" x1="0%" y1="0%" x2="100%" y2="100%"><stop offset="30%" stop-color="#49335c" stop-opacity="1"></stop><stop offset="70%" stop-color="#1d2540" stop-opacity="1"></stop></linearGradient></defs><defs><linearGradient id="grad2_7" x1="0%" y1="0%" x2="100%" y2="100%"><stop offset="30%" stop-color="#001220" stop-opacity="1"></stop><stop offset="70%" stop-color="#1d2540" stop-opacity="1"></stop></linearGradient></defs><g transform="translate(675, 0)"><path d="M0 168.8C-30.9 165.1 -61.7 161.5 -84.4 146.1C-107 130.8 -121.5 103.8 -134.2 77.5C-146.9 51.2 -157.8 25.6 -168.7 0L0 0Z" fill="#0c1c30"></path><path d="M0 147.7C-27 144.5 -54 141.3 -73.8 127.9C-93.7 114.5 -106.3 90.8 -117.5 67.8C-128.6 44.8 -138.1 22.4 -147.7 0L0 0Z" fill="#312c4f"></path><path d="M0 126.6C-23.1 123.8 -46.3 121.1 -63.3 109.6C-80.3 98.1 -91.2 77.9 -100.7 58.1C-110.2 38.4 -118.4 19.2 -126.6 0L0 0Z" fill="#623965"></path><path d="M0 105.5C-19.3 103.2 -38.6 100.9 -52.7 91.3C-66.9 81.8 -76 64.9 -83.9 48.4C-91.8 32 -98.7 16 -105.5 0L0 0Z" fill="#96446e"></path><path d="M0 84.4C-15.4 82.6 -30.9 80.7 -42.2 73.1C-53.5 65.4 -60.8 51.9 -67.1 38.8C-73.5 25.6 -78.9 12.8 -84.4 0L0 0Z" fill="#c55469"></path><path d="M0 63.3C-11.6 61.9 -23.1 60.6 -31.6 54.8C-40.1 49.1 -45.6 38.9 -50.3 29.1C-55.1 19.2 -59.2 9.6 -63.3 0L0 0Z" fill="#e9705a"></path><path d="M0 42.2C-7.7 41.3 -15.4 40.4 -21.1 36.5C-26.8 32.7 -30.4 26 -33.6 19.4C-36.7 12.8 -39.5 6.4 -42.2 0L0 0Z" fill="#fa9845"></path><path d="M0 21.1C-3.9 20.6 -7.7 20.2 -10.5 18.3C-13.4 16.4 -15.2 13 -16.8 9.7C-18.4 6.4 -19.7 3.2 -21.1 0L0 0Z" fill="#fbae3c"></path></g><g transform="translate(0, 900)"><path d="M0 -168.7C26.1 -158.8 52.3 -148.8 78.5 -136C104.7 -123.2 131.1 -107.5 146.1 -84.4C161.2 -61.2 165 -30.6 168.8 0L0 0Z" fill="#0c1c30"></path><path d="M0 -147.7C22.9 -138.9 45.7 -130.2 68.7 -119C91.6 -107.8 114.7 -94.1 127.9 -73.8C141.1 -53.6 144.4 -26.8 147.7 0L0 0Z" fill="#312c4f"></path><path d="M0 -126.6C19.6 -119.1 39.2 -111.6 58.9 -102C78.6 -92.4 98.3 -80.6 109.6 -63.3C120.9 -45.9 123.7 -23 126.6 0L0 0Z" fill="#623965"></path><path d="M0 -105.5C16.3 -99.2 32.7 -93 49.1 -85C65.5 -77 81.9 -67.2 91.3 -52.7C100.8 -38.3 103.1 -19.1 105.5 0L0 0Z" fill="#96446e"></path><path d="M0 -84.4C13.1 -79.4 26.1 -74.4 39.2 -68C52.4 -61.6 65.5 -53.8 73.1 -42.2C80.6 -30.6 82.5 -15.3 84.4 0L0 0Z" fill="#c55469"></path><path d="M0 -63.3C9.8 -59.5 19.6 -55.8 29.4 -51C39.3 -46.2 49.2 -40.3 54.8 -31.6C60.5 -23 61.9 -11.5 63.3 0L0 0Z" fill="#e9705a"></path><path d="M0 -42.2C6.5 -39.7 13.1 -37.2 19.6 -34C26.2 -30.8 32.8 -26.9 36.5 -21.1C40.3 -15.3 41.2 -7.7 42.2 0L0 0Z" fill="#fa9845"></path><path d="M0 -21.1C3.3 -19.8 6.5 -18.6 9.8 -17C13.1 -15.4 16.4 -13.4 18.3 -10.5C20.2 -7.7 20.6 -3.8 21.1 0L0 0Z" fill="#fbae3c"></path></g></svg>