<svg id="visual" viewBox="0 0 960 540" width="960" height="540" xmlns="http://www.w3.org/2000/svg" xmlns:xlink="http://www.w3.org/1999/xlink" version="1.1"><rect x="0" y="0" width="960" height="540" fill="#001220"></rect><defs><linearGradient id="grad1_0" x1="43.8%" y1="0%" x2="100%" y2="100%"><stop offset="14.444444444444446%" stop-color="#fbae3c" stop-opacity="1"></stop><stop offset="85.55555555555554%" stop-color="#fbae3c" stop-opacity="1"></stop></linearGradient></defs><defs><linearGradient id="grad1_1" x1="43.8%" y1="0%" x2="100%" y2="100%"><stop offset="14.444444444444446%" stop-color="#fbae3c" stop-opacity="1"></stop><stop offset="85.55555555555554%" stop-color="#f48350" stop-opacity="1"></stop></linearGradient></defs><defs><linearGradient id="grad1_2" x1="43.8%" y1="0%" x2="100%" y2="100%"><stop offset="14.444444444444446%" stop-color="#d96162" stop-opacity="1"></stop><stop offset="85.55555555555554%" stop-color="#f48350" stop-opacity="1"></stop></linearGradient></defs><defs><linearGradient id="grad1_3" x1="43.8%" y1="0%" x2="100%" y2="100%"><stop offset="14.444444444444446%" stop-color="#d96162" stop-opacity="1"></stop><stop offset="85.55555555555554%" stop-color="#af4b6d" stop-opacity="1"></stop></linearGradient></defs><defs><linearGradient id="grad1_4" x1="43.8%" y1="0%" x2="100%" y2="100%"><stop offset="14.444444444444446%" stop-color="#7c3e6b" stop-opacity="1"></stop><stop offset="85.55555555555554%" stop-color="#af4b6d" stop-opacity="1"></stop></linearGradient></defs><defs><linearGradient id="grad1_5" x1="43.8%" y1="0%" x2="100%" y2="100%"><stop offset="14.444444444444446%" stop-color="#7c3e6b" stop-opacity="1"></stop><stop offset="85.55555555555554%" stop-color="#49335c" stop-opacity="1"></stop></linearGradient></defs><defs><linearGradient id="grad1_6" x1="43.8%" y1="0%" x2="100%" y2="100%"><stop offset="14.444444444444446%" stop-color="#1d2540" stop-opacity="1"></stop><stop offset="85.55555555555554%" stop-color="#49335c" stop-opacity="1"></stop></linearGradient></defs><defs><linearGradient id="grad1_7" x1="43.8%" y1="0%" x2="100%" y2="100%"><stop offset="14.444444444444446%" stop-color="#1d2540" stop-opacity="1"></stop><stop offset="85.55555555555554%" stop-color="#001220" stop-opacity="1"></stop></linearGradient></defs><defs><linearGradient id="grad2_0" x1="0%" y1="0%" x2="56.3%" y2="100%"><stop offset="14.444444444444446%" stop-color="#fbae3c" stop-opacity="1"></stop><stop offset="85.55555555555554%" stop-color="#fbae3c" stop-opacity="1"></stop></linearGradient></defs><defs><linearGradient id="grad2_1" x1="0%" y1="0%" x2="56.3%" y2="100%"><stop offset="14.444444444444446%" stop-color="#f48350" stop-opacity="1"></stop><stop offset="85.55555555555554%" stop-color="#fbae3c" stop-opacity="1"></stop></linearGradient></defs><defs><linearGradient id="grad2_2" x1="0%" y1="0%" x2="56.3%" y2="100%"><stop offset="14.444444444444446%" stop-color="#f48350" stop-opacity="1"></stop><stop offset="85.55555555555554%" stop-color="#d96162" stop-opacity="1"></stop></linearGradient></defs><defs><linearGradient id="grad2_3" x1="0%" y1="0%" x2="56.3%" y2="100%"><stop offset="14.444444444444446%" stop-color="#af4b6d" stop-opacity="1"></stop><stop offset="85.55555555555554%" stop-color="#d96162" stop-opacity="1"></stop></linearGradient></defs><defs><linearGradient id="grad2_4" x1="0%" y1="0%" x2="56.3%" y2="100%"><stop offset="14.444444444444446%" stop-color="#af4b6d" stop-opacity="1"></stop><stop offset="85.55555555555554%" stop-color="#7c3e6b" stop-opacity="1"></stop></linearGradient></defs><defs><linearGradient id="grad2_5" x1="0%" y1="0%" x2="56.3%" y2="100%"><stop offset="14.444444444444446%" stop-color="#49335c" stop-opacity="1"></stop><stop offset="85.55555555555554%" stop-color="#7c3e6b" stop-opacity="1"></stop></linearGradient></defs><defs><linearGradient id="grad2_6" x1="0%" y1="0%" x2="56.3%" y2="100%"><stop offset="14.444444444444446%" stop-color="#49335c" stop-opacity="1"></stop><stop offset="85.55555555555554%" stop-color="#1d2540" stop-opacity="1"></stop></linearGradient></defs><defs><linearGradient id="grad2_7" x1="0%" y1="0%" x2="56.3%" y2="100%"><stop offset="14.444444444444446%" stop-color="#001220" stop-opacity="1"></stop><stop offset="85.55555555555554%" stop-color="#1d2540" stop-opacity="1"></stop></linearGradient></defs><g transform="translate(960, 0)"><path d="M0 297C-52.3 289.4 -104.6 281.9 -148.5 257.2C-192.4 232.5 -227.8 190.7 -251.1 145C-274.5 99.3 -285.7 49.6 -297 0L0 0Z" fill="#0c1c30"></path><path d="M0 259.9C-45.8 253.3 -91.5 246.7 -129.9 225.1C-168.3 203.5 -199.3 166.9 -219.8 126.9C-240.2 86.9 -250 43.4 -259.9 0L0 0Z" fill="#312c4f"></path><path d="M0 222.8C-39.2 217.1 -78.5 211.4 -111.4 192.9C-144.3 174.4 -170.9 143 -188.4 108.8C-205.9 74.5 -214.3 37.2 -222.7 0L0 0Z" fill="#623965"></path><path d="M0 185.6C-32.7 180.9 -65.4 176.2 -92.8 160.8C-120.2 145.3 -142.4 119.2 -157 90.6C-171.6 62 -178.6 31 -185.6 0L0 0Z" fill="#96446e"></path><path d="M0 148.5C-26.2 144.7 -52.3 140.9 -74.2 128.6C-96.2 116.3 -113.9 95.4 -125.6 72.5C-137.2 49.6 -142.9 24.8 -148.5 0L0 0Z" fill="#c55469"></path><path d="M0 111.4C-19.6 108.5 -39.2 105.7 -55.7 96.5C-72.1 87.2 -85.4 71.5 -94.2 54.4C-102.9 37.2 -107.2 18.6 -111.4 0L0 0Z" fill="#e9705a"></path><path d="M0 74.3C-13.1 72.4 -26.2 70.5 -37.1 64.3C-48.1 58.1 -57 47.7 -62.8 36.3C-68.6 24.8 -71.4 12.4 -74.2 0L0 0Z" fill="#fa9845"></path><path d="M0 37.1C-6.5 36.2 -13.1 35.2 -18.6 32.2C-24 29.1 -28.5 23.8 -31.4 18.1C-34.3 12.4 -35.7 6.2 -37.1 0L0 0Z" fill="#fbae3c"></path></g><g transform="translate(0, 540)"><path d="M0 -297C39 -267.3 77.9 -237.5 125 -216.5C172.1 -195.5 227.2 -183.1 257.2 -148.5C287.2 -113.9 292.1 -56.9 297 0L0 0Z" fill="#0c1c30"></path><path d="M0 -259.9C34.1 -233.9 68.2 -207.8 109.4 -189.4C150.5 -171 198.8 -160.2 225.1 -129.9C251.3 -99.6 255.6 -49.8 259.9 0L0 0Z" fill="#312c4f"></path><path d="M0 -222.7C29.2 -200.5 58.5 -178.2 93.7 -162.4C129 -146.6 170.4 -137.4 192.9 -111.4C215.4 -85.4 219.1 -42.7 222.8 0L0 0Z" fill="#623965"></path><path d="M0 -185.6C24.4 -167 48.7 -148.5 78.1 -135.3C107.5 -122.2 142 -114.5 160.8 -92.8C179.5 -71.2 182.6 -35.6 185.6 0L0 0Z" fill="#96446e"></path><path d="M0 -148.5C19.5 -133.6 39 -118.8 62.5 -108.3C86 -97.7 113.6 -91.6 128.6 -74.3C143.6 -56.9 146.1 -28.5 148.5 0L0 0Z" fill="#c55469"></path><path d="M0 -111.4C14.6 -100.2 29.2 -89.1 46.9 -81.2C64.5 -73.3 85.2 -68.7 96.5 -55.7C107.7 -42.7 109.5 -21.3 111.4 0L0 0Z" fill="#e9705a"></path><path d="M0 -74.2C9.7 -66.8 19.5 -59.4 31.2 -54.1C43 -48.9 56.8 -45.8 64.3 -37.1C71.8 -28.5 73 -14.2 74.3 0L0 0Z" fill="#fa9845"></path><path d="M0 -37.1C4.9 -33.4 9.7 -29.7 15.6 -27.1C21.5 -24.4 28.4 -22.9 32.2 -18.6C35.9 -14.2 36.5 -7.1 37.1 0L0 0Z" fill="#fbae3c"></path></g></svg>