<svg id="visual" viewBox="0 0 900 600" width="900" height="600" xmlns="http://www.w3.org/2000/svg" xmlns:xlink="http://www.w3.org/1999/xlink" version="1.1"><rect x="0" y="0" width="900" height="600" fill="#001220"></rect><defs><linearGradient id="grad1_0" x1="33.3%" y1="0%" x2="100%" y2="100%"><stop offset="20%" stop-color="#001220" stop-opacity="1"></stop><stop offset="80%" stop-color="#001220" stop-opacity="1"></stop></linearGradient></defs><defs><linearGradient id="grad2_0" x1="0%" y1="0%" x2="66.7%" y2="100%"><stop offset="20%" stop-color="#001220" stop-opacity="1"></stop><stop offset="80%" stop-color="#001220" stop-opacity="1"></stop></linearGradient></defs><g transform="translate(900, 0)"><path d="M0 486.7C-67.1 484.2 -134.2 481.6 -186.3 449.7C-238.3 417.8 -275.3 356.6 -304.1 304.1C-332.8 251.5 -353.4 207.7 -382.5 158.4C-411.6 109.2 -449.2 54.6 -486.7 0L0 0Z" fill="#FBAE3C"></path></g><g transform="translate(0, 600)"><path d="M0 -486.7C50.4 -447.3 100.7 -407.9 161.5 -389.9C222.3 -371.9 293.5 -375.3 344.2 -344.2C394.9 -313.1 425 -247.6 445.3 -184.5C465.6 -121.3 476.2 -60.7 486.7 0L0 0Z" fill="#FBAE3C"></path></g></svg>