<svg id="visual" viewBox="0 0 675 900" width="675" height="900" xmlns="http://www.w3.org/2000/svg" xmlns:xlink="http://www.w3.org/1999/xlink" version="1.1"><rect x="0" y="0" width="675" height="900" fill="#001220"></rect><defs><linearGradient id="grad1_0" x1="0%" y1="0%" x2="100%" y2="100%"><stop offset="30%" stop-color="#fbae3c" stop-opacity="1"></stop><stop offset="70%" stop-color="#fbae3c" stop-opacity="1"></stop></linearGradient></defs><defs><linearGradient id="grad1_1" x1="0%" y1="0%" x2="100%" y2="100%"><stop offset="30%" stop-color="#fbae3c" stop-opacity="1"></stop><stop offset="70%" stop-color="#f48350" stop-opacity="1"></stop></linearGradient></defs><defs><linearGradient id="grad1_2" x1="0%" y1="0%" x2="100%" y2="100%"><stop offset="30%" stop-color="#d96162" stop-opacity="1"></stop><stop offset="70%" stop-color="#f48350" stop-opacity="1"></stop></linearGradient></defs><defs><linearGradient id="grad1_3" x1="0%" y1="0%" x2="100%" y2="100%"><stop offset="30%" stop-color="#d96162" stop-opacity="1"></stop><stop offset="70%" stop-color="#af4b6d" stop-opacity="1"></stop></linearGradient></defs><defs><linearGradient id="grad1_4" x1="0%" y1="0%" x2="100%" y2="100%"><stop offset="30%" stop-color="#7c3e6b" stop-opacity="1"></stop><stop offset="70%" stop-color="#af4b6d" stop-opacity="1"></stop></linearGradient></defs><defs><linearGradient id="grad1_5" x1="0%" y1="0%" x2="100%" y2="100%"><stop offset="30%" stop-color="#7c3e6b" stop-opacity="1"></stop><stop offset="70%" stop-color="#49335c" stop-opacity="1"></stop></linearGradient></defs><defs><linearGradient id="grad1_6" x1="0%" y1="0%" x2="100%" y2="100%"><stop offset="30%" stop-color="#1d2540" stop-opacity="1"></stop><stop offset="70%" stop-color="#49335c" stop-opacity="1"></stop></linearGradient></defs><defs><linearGradient id="grad1_7" x1="0%" y1="0%" x2="100%" y2="100%"><stop offset="30%" stop-color="#1d2540" stop-opacity="1"></stop><stop offset="70%" stop-color="#001220" stop-opacity="1"></stop></linearGradient></defs><defs><linearGradient id="grad2_0" x1="0%" y1="0%" x2="100%" y2="100%"><stop offset="30%" stop-color="#fbae3c" stop-opacity="1"></stop><stop offset="70%" stop-color="#fbae3c" stop-opacity="1"></stop></linearGradient></defs><defs><linearGradient id="grad2_1" x1="0%" y1="0%" x2="100%" y2="100%"><stop offset="30%" stop-color="#f48350" stop-opacity="1"></stop><stop offset="70%" stop-color="#fbae3c" stop-opacity="1"></stop></linearGradient></defs><defs><linearGradient id="grad2_2" x1="0%" y1="0%" x2="100%" y2="100%"><stop offset="30%" stop-color="#f48350" stop-opacity="1"></stop><stop offset="70%" stop-color="#d96162" stop-opacity="1"></stop></linearGradient></defs><defs><linearGradient id="grad2_3" x1="0%" y1="0%" x2="100%" y2="100%"><stop offset="30%" stop-color="#af4b6d" stop-opacity="1"></stop><stop offset="70%" stop-color="#d96162" stop-opacity="1"></stop></linearGradient></defs><defs><linearGradient id="grad2_4" x1="0%" y1="0%" x2="100%" y2="100%"><stop offset="30%" stop-color="#af4b6d" stop-opacity="1"></stop><stop offset="70%" stop-color="#7c3e6b" stop-opacity="1"></stop></linearGradient></defs><defs><linearGradient id="grad2_5" x1="0%" y1="0%" x2="100%" y2="100%"><stop offset="30%" stop-color="#49335c" stop-opacity="1"></stop><stop offset="70%" stop-color="#7c3e6b" stop-opacity="1"></stop></linearGradient></defs><defs><linearGradient id="grad2_6" x1="0%" y1="0%" x2="100%" y2="100%"><stop offset="30%" stop-color="#49335c" stop-opacity="1"></stop><stop offset="70%" stop-color="#1d2540" stop-opacity="1"></stop></linearGradient></defs><defs><linearGradient id="grad2_7" x1="0%" y1="0%" x2="100%" y2="100%"><stop offset="30%" stop-color="#001220" stop-opacity="1"></stop><stop offset="70%" stop-color="#1d2540" stop-opacity="1"></stop></linearGradient></defs><g transform="translate(675, 0)"><path d="M0 309.4C-57.4 303.2 -114.8 297 -154.7 267.9C-194.6 238.9 -217 187 -239.9 138.5C-262.8 90 -286.1 45 -309.4 0L0 0Z" fill="#0c1c30"></path><path d="M0 270.7C-50.2 265.3 -100.4 259.9 -135.4 234.4C-170.3 209 -189.9 163.6 -209.9 121.2C-229.9 78.8 -250.3 39.4 -270.7 0L0 0Z" fill="#312c4f"></path><path d="M0 232C-43 227.4 -86.1 222.7 -116 200.9C-145.9 179.2 -162.8 140.2 -179.9 103.9C-197.1 67.5 -214.5 33.8 -232 0L0 0Z" fill="#623965"></path><path d="M0 193.4C-35.9 189.5 -71.7 185.6 -96.7 167.5C-121.6 149.3 -135.6 116.9 -149.9 86.6C-164.2 56.3 -178.8 28.1 -193.4 0L0 0Z" fill="#96446e"></path><path d="M0 154.7C-28.7 151.6 -57.4 148.5 -77.3 134C-97.3 119.4 -108.5 93.5 -119.9 69.3C-131.4 45 -143 22.5 -154.7 0L0 0Z" fill="#c55469"></path><path d="M0 116C-21.5 113.7 -43 111.4 -58 100.5C-73 89.6 -81.4 70.1 -90 51.9C-98.5 33.8 -107.3 16.9 -116 0L0 0Z" fill="#e9705a"></path><path d="M0 77.3C-14.3 75.8 -28.7 74.2 -38.7 67C-48.6 59.7 -54.3 46.7 -60 34.6C-65.7 22.5 -71.5 11.3 -77.3 0L0 0Z" fill="#fa9845"></path><path d="M0 38.7C-7.2 37.9 -14.3 37.1 -19.3 33.5C-24.3 29.9 -27.1 23.4 -30 17.3C-32.8 11.3 -35.8 5.6 -38.7 0L0 0Z" fill="#fbae3c"></path></g><g transform="translate(0, 900)"><path d="M0 -309.4C56.1 -302.4 112.2 -295.5 154.7 -267.9C197.1 -240.3 225.9 -192.1 249.4 -144C272.9 -95.9 291.1 -48 309.4 0L0 0Z" fill="#0c1c30"></path><path d="M0 -270.7C49.1 -264.6 98.2 -258.6 135.4 -234.4C172.5 -210.3 197.7 -168.1 218.2 -126C238.8 -83.9 254.8 -42 270.7 0L0 0Z" fill="#312c4f"></path><path d="M0 -232C42.1 -226.8 84.2 -221.6 116 -200.9C147.9 -180.3 169.4 -144.1 187.1 -108C204.7 -71.9 218.4 -36 232 0L0 0Z" fill="#623965"></path><path d="M0 -193.4C35.1 -189 70.1 -184.7 96.7 -167.5C123.2 -150.2 141.2 -120.1 155.9 -90C170.6 -59.9 182 -30 193.4 0L0 0Z" fill="#96446e"></path><path d="M0 -154.7C28.1 -151.2 56.1 -147.8 77.3 -134C98.6 -120.2 113 -96 124.7 -72C136.5 -48 145.6 -24 154.7 0L0 0Z" fill="#c55469"></path><path d="M0 -116C21 -113.4 42.1 -110.8 58 -100.5C73.9 -90.1 84.7 -72 93.5 -54C102.3 -36 109.2 -18 116 0L0 0Z" fill="#e9705a"></path><path d="M0 -77.3C14 -75.6 28.1 -73.9 38.7 -67C49.3 -60.1 56.5 -48 62.4 -36C68.2 -24 72.8 -12 77.3 0L0 0Z" fill="#fa9845"></path><path d="M0 -38.7C7 -37.8 14 -36.9 19.3 -33.5C24.6 -30 28.2 -24 31.2 -18C34.1 -12 36.4 -6 38.7 0L0 0Z" fill="#fbae3c"></path></g></svg>