<svg id="visual" viewBox="0 0 2560 2080" width="2560" height="2080" xmlns="http://www.w3.org/2000/svg" xmlns:xlink="http://www.w3.org/1999/xlink" version="1.1"><rect x="0" y="0" width="2560" height="2080" fill="#001220"></rect><defs><linearGradient id="grad1_0" x1="18.8%" y1="0%" x2="100%" y2="100%"><stop offset="25.38461538461538%" stop-color="#fbae3c" stop-opacity="1"></stop><stop offset="74.61538461538461%" stop-color="#fbae3c" stop-opacity="1"></stop></linearGradient></defs><defs><linearGradient id="grad1_1" x1="18.8%" y1="0%" x2="100%" y2="100%"><stop offset="25.38461538461538%" stop-color="#fbae3c" stop-opacity="1"></stop><stop offset="74.61538461538461%" stop-color="#f48350" stop-opacity="1"></stop></linearGradient></defs><defs><linearGradient id="grad1_2" x1="18.8%" y1="0%" x2="100%" y2="100%"><stop offset="25.38461538461538%" stop-color="#d96162" stop-opacity="1"></stop><stop offset="74.61538461538461%" stop-color="#f48350" stop-opacity="1"></stop></linearGradient></defs><defs><linearGradient id="grad1_3" x1="18.8%" y1="0%" x2="100%" y2="100%"><stop offset="25.38461538461538%" stop-color="#d96162" stop-opacity="1"></stop><stop offset="74.61538461538461%" stop-color="#af4b6d" stop-opacity="1"></stop></linearGradient></defs><defs><linearGradient id="grad1_4" x1="18.8%" y1="0%" x2="100%" y2="100%"><stop offset="25.38461538461538%" stop-color="#7c3e6b" stop-opacity="1"></stop><stop offset="74.61538461538461%" stop-color="#af4b6d" stop-opacity="1"></stop></linearGradient></defs><defs><linearGradient id="grad1_5" x1="18.8%" y1="0%" x2="100%" y2="100%"><stop offset="25.38461538461538%" stop-color="#7c3e6b" stop-opacity="1"></stop><stop offset="74.61538461538461%" stop-color="#49335c" stop-opacity="1"></stop></linearGradient></defs><defs><linearGradient id="grad1_6" x1="18.8%" y1="0%" x2="100%" y2="100%"><stop offset="25.38461538461538%" stop-color="#1d2540" stop-opacity="1"></stop><stop offset="74.61538461538461%" stop-color="#49335c" stop-opacity="1"></stop></linearGradient></defs><defs><linearGradient id="grad1_7" x1="18.8%" y1="0%" x2="100%" y2="100%"><stop offset="25.38461538461538%" stop-color="#1d2540" stop-opacity="1"></stop><stop offset="74.61538461538461%" stop-color="#001220" stop-opacity="1"></stop></linearGradient></defs><defs><linearGradient id="grad2_0" x1="0%" y1="0%" x2="81.3%" y2="100%"><stop offset="25.38461538461538%" stop-color="#fbae3c" stop-opacity="1"></stop><stop offset="74.61538461538461%" stop-color="#fbae3c" stop-opacity="1"></stop></linearGradient></defs><defs><linearGradient id="grad2_1" x1="0%" y1="0%" x2="81.3%" y2="100%"><stop offset="25.38461538461538%" stop-color="#f48350" stop-opacity="1"></stop><stop offset="74.61538461538461%" stop-color="#fbae3c" stop-opacity="1"></stop></linearGradient></defs><defs><linearGradient id="grad2_2" x1="0%" y1="0%" x2="81.3%" y2="100%"><stop offset="25.38461538461538%" stop-color="#f48350" stop-opacity="1"></stop><stop offset="74.61538461538461%" stop-color="#d96162" stop-opacity="1"></stop></linearGradient></defs><defs><linearGradient id="grad2_3" x1="0%" y1="0%" x2="81.3%" y2="100%"><stop offset="25.38461538461538%" stop-color="#af4b6d" stop-opacity="1"></stop><stop offset="74.61538461538461%" stop-color="#d96162" stop-opacity="1"></stop></linearGradient></defs><defs><linearGradient id="grad2_4" x1="0%" y1="0%" x2="81.3%" y2="100%"><stop offset="25.38461538461538%" stop-color="#af4b6d" stop-opacity="1"></stop><stop offset="74.61538461538461%" stop-color="#7c3e6b" stop-opacity="1"></stop></linearGradient></defs><defs><linearGradient id="grad2_5" x1="0%" y1="0%" x2="81.3%" y2="100%"><stop offset="25.38461538461538%" stop-color="#49335c" stop-opacity="1"></stop><stop offset="74.61538461538461%" stop-color="#7c3e6b" stop-opacity="1"></stop></linearGradient></defs><defs><linearGradient id="grad2_6" x1="0%" y1="0%" x2="81.3%" y2="100%"><stop offset="25.38461538461538%" stop-color="#49335c" stop-opacity="1"></stop><stop offset="74.61538461538461%" stop-color="#1d2540" stop-opacity="1"></stop></linearGradient></defs><defs><linearGradient id="grad2_7" x1="0%" y1="0%" x2="81.3%" y2="100%"><stop offset="25.38461538461538%" stop-color="#001220" stop-opacity="1"></stop><stop offset="74.61538461538461%" stop-color="#1d2540" stop-opacity="1"></stop></linearGradient></defs><g transform="translate(2560, 0)"><path d="M0 1649.2C-64 1629.7 -128.1 1610.3 -195.3 1608.2C-262.5 1606.1 -332.9 1621.5 -394.7 1601.3C-456.5 1581.1 -509.7 1525.4 -562 1482C-614.4 1438.6 -666 1407.5 -730.5 1391.9C-795 1376.4 -872.5 1376.5 -929.4 1346.4C-986.3 1316.3 -1022.6 1256 -1072.3 1210.3C-1121.9 1164.7 -1184.8 1133.8 -1220.1 1080.9C-1255.4 1028 -1263 953.1 -1303.6 899.8C-1344.2 846.6 -1417.6 815 -1446.8 759.4C-1476 703.7 -1461 623.9 -1469.8 557.4C-1478.7 491 -1511.3 437.9 -1543.8 380.5C-1576.3 323.2 -1608.5 261.6 -1626.1 197.4C-1643.6 133.3 -1646.4 66.7 -1649.2 0L0 0Z" fill="#0c1c30"></path><path d="M0 1443.1C-56 1426 -112 1409 -170.9 1407.2C-229.7 1405.4 -291.3 1418.8 -345.4 1401.2C-399.4 1383.5 -446 1334.7 -491.8 1296.8C-537.6 1258.8 -582.8 1231.5 -639.2 1217.9C-695.7 1204.4 -763.4 1204.5 -813.2 1178.1C-863 1151.8 -894.8 1099 -938.2 1059C-981.7 1019.1 -1036.7 992.1 -1067.6 945.8C-1098.4 899.5 -1105.2 833.9 -1140.7 787.3C-1176.2 740.8 -1240.4 713.2 -1266 664.4C-1291.5 615.7 -1278.4 545.9 -1286.1 487.8C-1293.8 429.6 -1322.4 383.1 -1350.8 332.9C-1379.2 282.8 -1407.5 228.9 -1422.8 172.8C-1438.1 116.6 -1440.6 58.3 -1443.1 0L0 0Z" fill="#312c4f"></path><path d="M0 1236.9C-48 1222.3 -96 1207.7 -146.5 1206.1C-196.9 1204.6 -249.7 1216.1 -296 1201C-342.4 1185.9 -382.2 1144.1 -421.5 1111.5C-460.8 1078.9 -499.5 1055.6 -547.9 1044C-596.3 1032.3 -654.3 1032.4 -697 1009.8C-739.7 987.2 -767 942 -804.2 907.8C-841.4 873.5 -888.6 850.4 -915.1 810.7C-941.5 771 -947.3 714.8 -977.7 674.9C-1008.1 634.9 -1063.2 611.3 -1085.1 569.5C-1107 527.8 -1095.8 467.9 -1102.4 418.1C-1109 368.2 -1133.5 328.4 -1157.8 285.4C-1182.2 242.4 -1206.4 196.2 -1219.5 148.1C-1232.7 100 -1234.8 50 -1236.9 0L0 0Z" fill="#623965"></path><path d="M0 1030.8C-40 1018.6 -80 1006.4 -122 1005.1C-164.1 1003.8 -208.1 1013.4 -246.7 1000.8C-285.3 988.2 -318.5 953.4 -351.3 926.3C-384 899.1 -416.3 879.7 -456.6 870C-496.9 860.3 -545.3 860.3 -580.8 841.5C-616.4 822.7 -639.1 785 -670.2 756.5C-701.2 728 -740.5 708.6 -762.5 675.6C-784.6 642.5 -789.4 595.7 -814.8 562.4C-840.1 529.1 -886 509.4 -904.3 474.6C-922.5 439.8 -913.1 389.9 -918.7 348.4C-924.2 306.9 -944.6 273.7 -964.9 237.8C-985.2 202 -1005.3 163.5 -1016.3 123.4C-1027.2 83.3 -1029 41.7 -1030.8 0L0 0Z" fill="#96446e"></path><path d="M0 824.6C-32 814.9 -64 805.1 -97.6 804.1C-131.2 803.1 -166.4 810.7 -197.3 800.7C-228.2 790.6 -254.8 762.7 -281 741C-307.2 719.3 -333 703.7 -365.3 696C-397.5 688.2 -436.2 688.3 -464.7 673.2C-493.1 658.1 -511.3 628 -536.1 605.2C-561 582.4 -592.4 566.9 -610 540.4C-627.7 514 -631.5 476.5 -651.8 449.9C-672.1 423.3 -708.8 407.5 -723.4 379.7C-738 351.8 -730.5 311.9 -734.9 278.7C-739.3 245.5 -755.7 218.9 -771.9 190.3C-788.1 161.6 -804.3 130.8 -813 98.7C-821.8 66.7 -823.2 33.3 -824.6 0L0 0Z" fill="#c55469"></path><path d="M0 618.5C-24 611.2 -48 603.8 -73.2 603.1C-98.4 602.3 -124.8 608.1 -148 600.5C-171.2 592.9 -191.1 572 -210.8 555.8C-230.4 539.5 -249.8 527.8 -274 522C-298.1 516.2 -327.2 516.2 -348.5 504.9C-369.8 493.6 -383.5 471 -402.1 453.9C-420.7 436.8 -444.3 425.2 -457.5 405.3C-470.8 385.5 -473.6 357.4 -488.9 337.4C-504.1 317.5 -531.6 305.6 -542.6 284.8C-553.5 263.9 -547.9 234 -551.2 209C-554.5 184.1 -566.8 164.2 -578.9 142.7C-591.1 121.2 -603.2 98.1 -609.8 74C-616.3 50 -617.4 25 -618.5 0L0 0Z" fill="#e9705a"></path><path d="M0 412.3C-16 407.4 -32 402.6 -48.8 402C-65.6 401.5 -83.2 405.4 -98.7 400.3C-114.1 395.3 -127.4 381.4 -140.5 370.5C-153.6 359.6 -166.5 351.9 -182.6 348C-198.8 344.1 -218.1 344.1 -232.3 336.6C-246.6 329.1 -255.7 314 -268.1 302.6C-280.5 291.2 -296.2 283.5 -305 270.2C-313.8 257 -315.8 238.3 -325.9 225C-336 211.6 -354.4 203.8 -361.7 189.8C-369 175.9 -365.3 156 -367.5 139.4C-369.7 122.7 -377.8 109.5 -385.9 95.1C-394.1 80.8 -402.1 65.4 -406.5 49.4C-410.9 33.3 -411.6 16.7 -412.3 0L0 0Z" fill="#fa9845"></path><path d="M0 206.2C-8 203.7 -16 201.3 -24.4 201C-32.8 200.8 -41.6 202.7 -49.3 200.2C-57.1 197.6 -63.7 190.7 -70.3 185.3C-76.8 179.8 -83.3 175.9 -91.3 174C-99.4 172.1 -109.1 172.1 -116.2 168.3C-123.3 164.5 -127.8 157 -134 151.3C-140.2 145.6 -148.1 141.7 -152.5 135.1C-156.9 128.5 -157.9 119.1 -163 112.5C-168 105.8 -177.2 101.9 -180.9 94.9C-184.5 88 -182.6 78 -183.7 69.7C-184.8 61.4 -188.9 54.7 -193 47.6C-197 40.4 -201.1 32.7 -203.3 24.7C-205.4 16.7 -205.8 8.3 -206.2 0L0 0Z" fill="#fbae3c"></path></g><g transform="translate(0, 2080)"><path d="M0 -1649.2C67.7 -1650.2 135.3 -1651.2 198 -1631C260.8 -1610.8 318.5 -1569.5 381.9 -1549.6C445.3 -1529.7 514.4 -1531.3 569.9 -1502.6C625.3 -1473.8 667.3 -1414.8 731 -1392.8C794.7 -1370.9 880.1 -1386.1 935.6 -1355.5C991.1 -1324.8 1016.5 -1248.3 1057 -1193.1C1097.5 -1138 1153 -1104.2 1191.6 -1055.7C1230.3 -1007.2 1252.1 -943.8 1296.2 -894.7C1340.3 -845.6 1406.8 -810.6 1449.5 -760.8C1492.2 -710.9 1511.1 -646.2 1539 -583.7C1566.9 -521.2 1603.8 -461 1601.3 -394.7C1598.9 -328.4 1557.1 -256 1558.6 -189.2C1560 -122.4 1604.6 -61.2 1649.2 0L0 0Z" fill="#0c1c30"></path><path d="M0 -1443.1C59.2 -1443.9 118.4 -1444.8 173.3 -1427.1C228.2 -1409.5 278.7 -1373.3 334.2 -1355.9C389.7 -1338.5 450.1 -1339.9 498.6 -1314.7C547.2 -1289.6 583.9 -1237.9 639.6 -1218.7C695.4 -1199.5 770.1 -1212.8 818.7 -1186C867.2 -1159.2 889.5 -1092.2 924.9 -1044C960.3 -995.7 1008.9 -966.2 1042.7 -923.7C1076.5 -881.3 1095.6 -825.9 1134.2 -782.9C1172.8 -739.9 1230.9 -709.3 1268.3 -665.7C1305.7 -622 1322.2 -565.4 1346.7 -510.7C1371.1 -456 1403.3 -403.4 1401.2 -345.4C1399 -287.3 1362.5 -224 1363.7 -165.6C1365 -107.1 1404 -53.6 1443.1 0L0 0Z" fill="#312c4f"></path><path d="M0 -1236.9C50.7 -1237.7 101.5 -1238.4 148.5 -1223.3C195.6 -1208.1 238.9 -1177.1 286.5 -1162.2C334 -1147.3 385.8 -1148.5 427.4 -1126.9C469 -1105.4 500.5 -1061.1 548.3 -1044.6C596 -1028.2 660.1 -1039.6 701.7 -1016.6C743.3 -993.6 762.4 -936.2 792.8 -894.8C823.1 -853.5 864.7 -828.2 893.7 -791.8C922.7 -755.4 939.1 -707.9 972.1 -671C1005.2 -634.2 1055.1 -608 1087.1 -570.6C1119.1 -533.2 1133.4 -484.6 1154.3 -437.8C1175.2 -390.9 1202.8 -345.7 1201 -296C1199.1 -246.3 1167.8 -192 1168.9 -141.9C1170 -91.8 1203.5 -45.9 1236.9 0L0 0Z" fill="#623965"></path><path d="M0 -1030.8C42.3 -1031.4 84.6 -1032 123.8 -1019.4C163 -1006.8 199.1 -980.9 238.7 -968.5C278.3 -956.1 321.5 -957.1 356.2 -939.1C390.8 -921.1 417.1 -884.2 456.9 -870.5C496.7 -856.8 550.1 -866.3 584.8 -847.2C619.4 -828 635.3 -780.2 660.6 -745.7C685.9 -711.2 720.6 -690.1 744.8 -659.8C768.9 -629.5 782.5 -589.9 810.1 -559.2C837.7 -528.5 879.2 -506.6 905.9 -475.5C932.6 -444.3 944.5 -403.8 961.9 -364.8C979.3 -325.7 1002.4 -288.1 1000.8 -246.7C999.3 -205.2 973.2 -160 974.1 -118.3C975 -76.5 1002.9 -38.3 1030.8 0L0 0Z" fill="#96446e"></path><path d="M0 -824.6C33.8 -825.1 67.7 -825.6 99 -815.5C130.4 -805.4 159.3 -784.8 191 -774.8C222.7 -764.9 257.2 -765.7 284.9 -751.3C312.7 -736.9 333.7 -707.4 365.5 -696.4C397.4 -685.4 440.1 -693.1 467.8 -677.7C495.5 -662.4 508.3 -624.1 528.5 -596.6C548.7 -569 576.5 -552.1 595.8 -527.8C615.1 -503.6 626 -471.9 648.1 -447.4C670.2 -422.8 703.4 -405.3 724.7 -380.4C746.1 -355.5 755.6 -323.1 769.5 -291.8C783.5 -260.6 801.9 -230.5 800.7 -197.3C799.4 -164.2 778.6 -128 779.3 -94.6C780 -61.2 802.3 -30.6 824.6 0L0 0Z" fill="#c55469"></path><path d="M0 -618.5C25.4 -618.8 50.7 -619.2 74.3 -611.6C97.8 -604.1 119.5 -588.6 143.2 -581.1C167 -573.7 192.9 -574.2 213.7 -563.5C234.5 -552.7 250.2 -530.5 274.1 -522.3C298 -514.1 330.1 -519.8 350.9 -508.3C371.6 -496.8 381.2 -468.1 396.4 -447.4C411.6 -426.7 432.4 -414.1 446.9 -395.9C461.4 -377.7 469.5 -353.9 486.1 -335.5C502.6 -317.1 527.5 -304 543.6 -285.3C559.6 -266.6 566.7 -242.3 577.1 -218.9C587.6 -195.4 601.4 -172.9 600.5 -148C599.6 -123.1 583.9 -96 584.5 -71C585 -45.9 601.7 -23 618.5 0L0 0Z" fill="#e9705a"></path><path d="M0 -412.3C16.9 -412.6 33.8 -412.8 49.5 -407.8C65.2 -402.7 79.6 -392.4 95.5 -387.4C111.3 -382.4 128.6 -382.8 142.5 -375.6C156.3 -368.5 166.8 -353.7 182.8 -348.2C198.7 -342.7 220 -346.5 233.9 -338.9C247.8 -331.2 254.1 -312.1 264.3 -298.3C274.4 -284.5 288.2 -276.1 297.9 -263.9C307.6 -251.8 313 -236 324 -223.7C335.1 -211.4 351.7 -202.7 362.4 -190.2C373 -177.7 377.8 -161.5 384.8 -145.9C391.7 -130.3 400.9 -115.2 400.3 -98.7C399.7 -82.1 389.3 -64 389.6 -47.3C390 -30.6 401.2 -15.3 412.3 0L0 0Z" fill="#fa9845"></path><path d="M0 -206.2C8.5 -206.3 16.9 -206.4 24.8 -203.9C32.6 -201.4 39.8 -196.2 47.7 -193.7C55.7 -191.2 64.3 -191.4 71.2 -187.8C78.2 -184.2 83.4 -176.8 91.4 -174.1C99.3 -171.4 110 -173.3 117 -169.4C123.9 -165.6 127.1 -156 132.1 -149.1C137.2 -142.2 144.1 -138 149 -132C153.8 -125.9 156.5 -118 162 -111.8C167.5 -105.7 175.8 -101.3 181.2 -95.1C186.5 -88.9 188.9 -80.8 192.4 -73C195.9 -65.1 200.5 -57.6 200.2 -49.3C199.9 -41 194.6 -32 194.8 -23.7C195 -15.3 200.6 -7.7 206.2 0L0 0Z" fill="#fbae3c"></path></g></svg>