<svg id="visual" viewBox="0 0 768 693" width="768" height="693" xmlns="http://www.w3.org/2000/svg" xmlns:xlink="http://www.w3.org/1999/xlink" version="1.1"><rect x="0" y="0" width="768" height="693" fill="#001220"></rect><defs><linearGradient id="grad1_0" x1="9.8%" y1="0%" x2="100%" y2="100%"><stop offset="27.835497835497836%" stop-color="#fbae3c" stop-opacity="1"></stop><stop offset="72.16450216450217%" stop-color="#fbae3c" stop-opacity="1"></stop></linearGradient></defs><defs><linearGradient id="grad1_1" x1="9.8%" y1="0%" x2="100%" y2="100%"><stop offset="27.835497835497836%" stop-color="#fbae3c" stop-opacity="1"></stop><stop offset="72.16450216450217%" stop-color="#f48350" stop-opacity="1"></stop></linearGradient></defs><defs><linearGradient id="grad1_2" x1="9.8%" y1="0%" x2="100%" y2="100%"><stop offset="27.835497835497836%" stop-color="#d96162" stop-opacity="1"></stop><stop offset="72.16450216450217%" stop-color="#f48350" stop-opacity="1"></stop></linearGradient></defs><defs><linearGradient id="grad1_3" x1="9.8%" y1="0%" x2="100%" y2="100%"><stop offset="27.835497835497836%" stop-color="#d96162" stop-opacity="1"></stop><stop offset="72.16450216450217%" stop-color="#af4b6d" stop-opacity="1"></stop></linearGradient></defs><defs><linearGradient id="grad1_4" x1="9.8%" y1="0%" x2="100%" y2="100%"><stop offset="27.835497835497836%" stop-color="#7c3e6b" stop-opacity="1"></stop><stop offset="72.16450216450217%" stop-color="#af4b6d" stop-opacity="1"></stop></linearGradient></defs><defs><linearGradient id="grad1_5" x1="9.8%" y1="0%" x2="100%" y2="100%"><stop offset="27.835497835497836%" stop-color="#7c3e6b" stop-opacity="1"></stop><stop offset="72.16450216450217%" stop-color="#49335c" stop-opacity="1"></stop></linearGradient></defs><defs><linearGradient id="grad1_6" x1="9.8%" y1="0%" x2="100%" y2="100%"><stop offset="27.835497835497836%" stop-color="#1d2540" stop-opacity="1"></stop><stop offset="72.16450216450217%" stop-color="#49335c" stop-opacity="1"></stop></linearGradient></defs><defs><linearGradient id="grad1_7" x1="9.8%" y1="0%" x2="100%" y2="100%"><stop offset="27.835497835497836%" stop-color="#1d2540" stop-opacity="1"></stop><stop offset="72.16450216450217%" stop-color="#001220" stop-opacity="1"></stop></linearGradient></defs><defs><linearGradient id="grad2_0" x1="0%" y1="0%" x2="90.2%" y2="100%"><stop offset="27.835497835497836%" stop-color="#fbae3c" stop-opacity="1"></stop><stop offset="72.16450216450217%" stop-color="#fbae3c" stop-opacity="1"></stop></linearGradient></defs><defs><linearGradient id="grad2_1" x1="0%" y1="0%" x2="90.2%" y2="100%"><stop offset="27.835497835497836%" stop-color="#f48350" stop-opacity="1"></stop><stop offset="72.16450216450217%" stop-color="#fbae3c" stop-opacity="1"></stop></linearGradient></defs><defs><linearGradient id="grad2_2" x1="0%" y1="0%" x2="90.2%" y2="100%"><stop offset="27.835497835497836%" stop-color="#f48350" stop-opacity="1"></stop><stop offset="72.16450216450217%" stop-color="#d96162" stop-opacity="1"></stop></linearGradient></defs><defs><linearGradient id="grad2_3" x1="0%" y1="0%" x2="90.2%" y2="100%"><stop offset="27.835497835497836%" stop-color="#af4b6d" stop-opacity="1"></stop><stop offset="72.16450216450217%" stop-color="#d96162" stop-opacity="1"></stop></linearGradient></defs><defs><linearGradient id="grad2_4" x1="0%" y1="0%" x2="90.2%" y2="100%"><stop offset="27.835497835497836%" stop-color="#af4b6d" stop-opacity="1"></stop><stop offset="72.16450216450217%" stop-color="#7c3e6b" stop-opacity="1"></stop></linearGradient></defs><defs><linearGradient id="grad2_5" x1="0%" y1="0%" x2="90.2%" y2="100%"><stop offset="27.835497835497836%" stop-color="#49335c" stop-opacity="1"></stop><stop offset="72.16450216450217%" stop-color="#7c3e6b" stop-opacity="1"></stop></linearGradient></defs><defs><linearGradient id="grad2_6" x1="0%" y1="0%" x2="90.2%" y2="100%"><stop offset="27.835497835497836%" stop-color="#49335c" stop-opacity="1"></stop><stop offset="72.16450216450217%" stop-color="#1d2540" stop-opacity="1"></stop></linearGradient></defs><defs><linearGradient id="grad2_7" x1="0%" y1="0%" x2="90.2%" y2="100%"><stop offset="27.835497835497836%" stop-color="#001220" stop-opacity="1"></stop><stop offset="72.16450216450217%" stop-color="#1d2540" stop-opacity="1"></stop></linearGradient></defs><g transform="translate(768, 0)"><path d="M0 284.5C-38.8 258.6 -77.6 232.6 -122.5 212.2C-167.4 191.7 -218.4 176.7 -246.4 142.2C-274.4 107.8 -279.4 53.9 -284.5 0L0 0Z" fill="#0c1c30"></path><path d="M0 248.9C-34 226.2 -67.9 203.6 -107.2 185.7C-146.5 167.7 -191.1 154.6 -215.6 124.5C-240.1 94.3 -244.5 47.2 -248.9 0L0 0Z" fill="#312c4f"></path><path d="M0 213.4C-29.1 193.9 -58.2 174.5 -91.9 159.1C-125.5 143.8 -163.8 132.5 -184.8 106.7C-205.8 80.8 -209.6 40.4 -213.4 0L0 0Z" fill="#623965"></path><path d="M0 177.8C-24.3 161.6 -48.5 145.4 -76.6 132.6C-104.6 119.8 -136.5 110.4 -154 88.9C-171.5 67.4 -174.6 33.7 -177.8 0L0 0Z" fill="#96446e"></path><path d="M0 142.2C-19.4 129.3 -38.8 116.3 -61.2 106.1C-83.7 95.9 -109.2 88.3 -123.2 71.1C-137.2 53.9 -139.7 26.9 -142.2 0L0 0Z" fill="#c55469"></path><path d="M0 106.7C-14.6 97 -29.1 87.2 -45.9 79.6C-62.8 71.9 -81.9 66.3 -92.4 53.3C-102.9 40.4 -104.8 20.2 -106.7 0L0 0Z" fill="#e9705a"></path><path d="M0 71.1C-9.7 64.6 -19.4 58.2 -30.6 53C-41.8 47.9 -54.6 44.2 -61.6 35.6C-68.6 26.9 -69.9 13.5 -71.1 0L0 0Z" fill="#fa9845"></path><path d="M0 35.6C-4.9 32.3 -9.7 29.1 -15.3 26.5C-20.9 24 -27.3 22.1 -30.8 17.8C-34.3 13.5 -34.9 6.7 -35.6 0L0 0Z" fill="#fbae3c"></path></g><g transform="translate(0, 693)"><path d="M0 -284.5C54 -279.5 108 -274.5 142.2 -246.4C176.5 -218.2 190.9 -166.9 211.3 -122C231.7 -77.1 258.1 -38.5 284.5 0L0 0Z" fill="#0c1c30"></path><path d="M0 -248.9C47.3 -244.6 94.5 -240.2 124.5 -215.6C154.4 -190.9 167 -146.1 184.9 -106.8C202.8 -67.4 225.8 -33.7 248.9 0L0 0Z" fill="#312c4f"></path><path d="M0 -213.4C40.5 -209.6 81 -205.9 106.7 -184.8C132.3 -163.7 143.2 -125.2 158.5 -91.5C173.8 -57.8 193.6 -28.9 213.4 0L0 0Z" fill="#623965"></path><path d="M0 -177.8C33.8 -174.7 67.5 -171.6 88.9 -154C110.3 -136.4 119.3 -104.3 132.1 -76.3C144.8 -48.2 161.3 -24.1 177.8 0L0 0Z" fill="#96446e"></path><path d="M0 -142.2C27 -139.7 54 -137.3 71.1 -123.2C88.2 -109.1 95.5 -83.5 105.7 -61C115.9 -38.5 129 -19.3 142.2 0L0 0Z" fill="#c55469"></path><path d="M0 -106.7C20.3 -104.8 40.5 -102.9 53.3 -92.4C66.2 -81.8 71.6 -62.6 79.2 -45.8C86.9 -28.9 96.8 -14.5 106.7 0L0 0Z" fill="#e9705a"></path><path d="M0 -71.1C13.5 -69.9 27 -68.6 35.6 -61.6C44.1 -54.6 47.7 -41.7 52.8 -30.5C57.9 -19.3 64.5 -9.6 71.1 0L0 0Z" fill="#fa9845"></path><path d="M0 -35.6C6.8 -34.9 13.5 -34.3 17.8 -30.8C22.1 -27.3 23.9 -20.9 26.4 -15.3C29 -9.6 32.3 -4.8 35.6 0L0 0Z" fill="#fbae3c"></path></g></svg>