<svg id="visual" viewBox="0 0 900 450" width="900" height="450" xmlns="http://www.w3.org/2000/svg" xmlns:xlink="http://www.w3.org/1999/xlink" version="1.1"><rect x="0" y="0" width="900" height="450" fill="#001220"></rect><defs><linearGradient id="grad1_0" x1="50%" y1="0%" x2="100%" y2="100%"><stop offset="10%" stop-color="#fbae3c" stop-opacity="1"></stop><stop offset="90%" stop-color="#fbae3c" stop-opacity="1"></stop></linearGradient></defs><defs><linearGradient id="grad1_1" x1="50%" y1="0%" x2="100%" y2="100%"><stop offset="10%" stop-color="#fbae3c" stop-opacity="1"></stop><stop offset="90%" stop-color="#f48350" stop-opacity="1"></stop></linearGradient></defs><defs><linearGradient id="grad1_2" x1="50%" y1="0%" x2="100%" y2="100%"><stop offset="10%" stop-color="#d96162" stop-opacity="1"></stop><stop offset="90%" stop-color="#f48350" stop-opacity="1"></stop></linearGradient></defs><defs><linearGradient id="grad1_3" x1="50%" y1="0%" x2="100%" y2="100%"><stop offset="10%" stop-color="#d96162" stop-opacity="1"></stop><stop offset="90%" stop-color="#af4b6d" stop-opacity="1"></stop></linearGradient></defs><defs><linearGradient id="grad1_4" x1="50%" y1="0%" x2="100%" y2="100%"><stop offset="10%" stop-color="#7c3e6b" stop-opacity="1"></stop><stop offset="90%" stop-color="#af4b6d" stop-opacity="1"></stop></linearGradient></defs><defs><linearGradient id="grad1_5" x1="50%" y1="0%" x2="100%" y2="100%"><stop offset="10%" stop-color="#7c3e6b" stop-opacity="1"></stop><stop offset="90%" stop-color="#49335c" stop-opacity="1"></stop></linearGradient></defs><defs><linearGradient id="grad1_6" x1="50%" y1="0%" x2="100%" y2="100%"><stop offset="10%" stop-color="#1d2540" stop-opacity="1"></stop><stop offset="90%" stop-color="#49335c" stop-opacity="1"></stop></linearGradient></defs><defs><linearGradient id="grad1_7" x1="50%" y1="0%" x2="100%" y2="100%"><stop offset="10%" stop-color="#1d2540" stop-opacity="1"></stop><stop offset="90%" stop-color="#001220" stop-opacity="1"></stop></linearGradient></defs><defs><linearGradient id="grad2_0" x1="0%" y1="0%" x2="50%" y2="100%"><stop offset="10%" stop-color="#fbae3c" stop-opacity="1"></stop><stop offset="90%" stop-color="#fbae3c" stop-opacity="1"></stop></linearGradient></defs><defs><linearGradient id="grad2_1" x1="0%" y1="0%" x2="50%" y2="100%"><stop offset="10%" stop-color="#f48350" stop-opacity="1"></stop><stop offset="90%" stop-color="#fbae3c" stop-opacity="1"></stop></linearGradient></defs><defs><linearGradient id="grad2_2" x1="0%" y1="0%" x2="50%" y2="100%"><stop offset="10%" stop-color="#f48350" stop-opacity="1"></stop><stop offset="90%" stop-color="#d96162" stop-opacity="1"></stop></linearGradient></defs><defs><linearGradient id="grad2_3" x1="0%" y1="0%" x2="50%" y2="100%"><stop offset="10%" stop-color="#af4b6d" stop-opacity="1"></stop><stop offset="90%" stop-color="#d96162" stop-opacity="1"></stop></linearGradient></defs><defs><linearGradient id="grad2_4" x1="0%" y1="0%" x2="50%" y2="100%"><stop offset="10%" stop-color="#af4b6d" stop-opacity="1"></stop><stop offset="90%" stop-color="#7c3e6b" stop-opacity="1"></stop></linearGradient></defs><defs><linearGradient id="grad2_5" x1="0%" y1="0%" x2="50%" y2="100%"><stop offset="10%" stop-color="#49335c" stop-opacity="1"></stop><stop offset="90%" stop-color="#7c3e6b" stop-opacity="1"></stop></linearGradient></defs><defs><linearGradient id="grad2_6" x1="0%" y1="0%" x2="50%" y2="100%"><stop offset="10%" stop-color="#49335c" stop-opacity="1"></stop><stop offset="90%" stop-color="#1d2540" stop-opacity="1"></stop></linearGradient></defs><defs><linearGradient id="grad2_7" x1="0%" y1="0%" x2="50%" y2="100%"><stop offset="10%" stop-color="#001220" stop-opacity="1"></stop><stop offset="90%" stop-color="#1d2540" stop-opacity="1"></stop></linearGradient></defs><g transform="translate(900, 0)"><path d="M0 315C-56.6 307.6 -113.2 300.3 -157.5 272.8C-201.8 245.3 -233.9 197.8 -258.1 149C-282.3 100.2 -298.6 50.1 -315 0L0 0Z" fill="#0c1c30"></path><path d="M0 275.6C-49.5 269.2 -99 262.7 -137.8 238.7C-176.6 214.7 -204.6 173.1 -225.8 130.4C-247 87.7 -261.3 43.8 -275.6 0L0 0Z" fill="#312c4f"></path><path d="M0 236.3C-42.4 230.7 -84.9 225.2 -118.1 204.6C-151.4 184 -175.4 148.4 -193.6 111.8C-211.7 75.1 -224 37.6 -236.2 0L0 0Z" fill="#623965"></path><path d="M0 196.9C-35.4 192.3 -70.7 187.7 -98.4 170.5C-126.1 153.3 -146.2 123.6 -161.3 93.1C-176.4 62.6 -186.7 31.3 -196.9 0L0 0Z" fill="#96446e"></path><path d="M0 157.5C-28.3 153.8 -56.6 150.1 -78.7 136.4C-100.9 122.7 -116.9 98.9 -129 74.5C-141.1 50.1 -149.3 25 -157.5 0L0 0Z" fill="#c55469"></path><path d="M0 118.1C-21.2 115.4 -42.4 112.6 -59.1 102.3C-75.7 92 -87.7 74.2 -96.8 55.9C-105.9 37.6 -112 18.8 -118.1 0L0 0Z" fill="#e9705a"></path><path d="M0 78.8C-14.1 76.9 -28.3 75.1 -39.4 68.2C-50.5 61.3 -58.5 49.5 -64.5 37.3C-70.6 25 -74.7 12.5 -78.7 0L0 0Z" fill="#fa9845"></path><path d="M0 39.4C-7.1 38.5 -14.1 37.5 -19.7 34.1C-25.2 30.7 -29.2 24.7 -32.3 18.6C-35.3 12.5 -37.3 6.3 -39.4 0L0 0Z" fill="#fbae3c"></path></g><g transform="translate(0, 450)"><path d="M0 -315C58.2 -308.6 116.4 -302.1 157.5 -272.8C198.6 -243.5 222.6 -191.3 246 -142C269.3 -92.7 292.2 -46.4 315 0L0 0Z" fill="#0c1c30"></path><path d="M0 -275.6C50.9 -270 101.9 -264.4 137.8 -238.7C173.8 -213 194.7 -167.4 215.2 -124.3C235.7 -81.1 255.7 -40.6 275.6 0L0 0Z" fill="#312c4f"></path><path d="M0 -236.2C43.7 -231.4 87.3 -226.6 118.1 -204.6C148.9 -182.6 166.9 -143.5 184.5 -106.5C202 -69.5 219.1 -34.8 236.3 0L0 0Z" fill="#623965"></path><path d="M0 -196.9C36.4 -192.8 72.8 -188.8 98.4 -170.5C124.1 -152.2 139.1 -119.5 153.7 -88.8C168.3 -58 182.6 -29 196.9 0L0 0Z" fill="#96446e"></path><path d="M0 -157.5C29.1 -154.3 58.2 -151.1 78.7 -136.4C99.3 -121.7 111.3 -95.6 123 -71C134.7 -46.4 146.1 -23.2 157.5 0L0 0Z" fill="#c55469"></path><path d="M0 -118.1C21.8 -115.7 43.7 -113.3 59.1 -102.3C74.5 -91.3 83.5 -71.7 92.2 -53.3C101 -34.8 109.6 -17.4 118.1 0L0 0Z" fill="#e9705a"></path><path d="M0 -78.7C14.6 -77.1 29.1 -75.5 39.4 -68.2C49.6 -60.9 55.6 -47.8 61.5 -35.5C67.3 -23.2 73 -11.6 78.8 0L0 0Z" fill="#fa9845"></path><path d="M0 -39.4C7.3 -38.6 14.6 -37.8 19.7 -34.1C24.8 -30.4 27.8 -23.9 30.7 -17.8C33.7 -11.6 36.5 -5.8 39.4 0L0 0Z" fill="#fbae3c"></path></g></svg>