<svg width="1920" height="1080" viewBox="0 0 1920 1080" xmlns="http://www.w3.org/2000/svg"><rect width="1920" height="1080" fill="#df6688"/><path d="M 0,1080 C 0,1080 0,180 0,180 C 131.65641025641025,207.5205128205128 263.3128205128205,235.04102564102564 348,242 C 432.6871794871795,248.95897435897436 470.4051282051281,235.35641025641024 582,218 C 693.5948717948719,200.64358974358976 879.0666666666668,179.5333333333333 996,170 C 1112.9333333333332,160.4666666666667 1161.3282051282051,162.51025641025643 1240,169 C 1318.6717948717949,175.48974358974357 1427.6205128205127,186.425641025641 1546,189 C 1664.3794871794873,191.574358974359 1792.1897435897436,185.78717948717951 1920,180 C 1920,180 1920,1080 1920,1080 Z" fill="#3d1053" opacity="0.09999999999999999"/><path d="M 0,1080 C 0,1080 0,360 0,360 C 104.95128205128205,360.4435897435897 209.9025641025641,360.8871794871794 315,351 C 420.0974358974359,341.1128205128206 525.3410256410256,320.89487179487185 625,319 C 724.6589743589744,317.10512820512815 818.7333333333333,333.53333333333336 923,347 C 1027.2666666666667,360.46666666666664 1141.725641025641,370.9717948717949 1270,376 C 1398.274358974359,381.0282051282051 1540.3641025641025,380.5794871794872 1651,377 C 1761.6358974358975,373.4205128205128 1840.8179487179486,366.7102564102564 1920,360 C 1920,360 1920,1080 1920,1080 Z" fill="#3d1053" opacity="0.19999999999999998"/><path d="M 0,1080 C 0,1080 0,540 0,540 C 91.58974358974359,533.8435897435897 183.17948717948718,527.6871794871795 280,520 C 376.8205128205128,512.3128205128205 478.87179487179503,503.0948717948718 588,522 C 697.128205128205,540.9051282051282 813.3333333333333,587.9333333333333 923,577 C 1032.6666666666667,566.0666666666667 1135.7948717948716,497.1717948717949 1248,497 C 1360.2051282051284,496.8282051282051 1481.4871794871794,565.3794871794871 1595,584 C 1708.5128205128206,602.6205128205129 1814.2564102564102,571.3102564102564 1920,540 C 1920,540 1920,1080 1920,1080 Z" fill="#3d1053" opacity="0.3"/><path d="M 0,1080 C 0,1080 0,720 0,720 C 77.34871794871793,745.374358974359 154.69743589743587,770.748717948718 260,761 C 365.30256410256413,751.251282051282 498.5589743589744,706.3794871794872 621,714 C 743.4410256410256,721.6205128205128 855.0666666666666,781.7333333333333 972,781 C 1088.9333333333334,780.2666666666667 1211.174358974359,718.6871794871795 1317,684 C 1422.825641025641,649.3128205128205 1512.2358974358976,641.5179487179487 1610,652 C 1707.7641025641024,662.4820512820513 1813.8820512820512,691.2410256410257 1920,720 C 1920,720 1920,1080 1920,1080 Z" fill="#3d1053" opacity="0.39999999999999997"/><path d="M 0,1080 C 0,1080 0,900 0,900 C 109.44102564102565,892.4564102564102 218.8820512820513,884.9128205128205 314,898 C 409.1179487179487,911.0871794871795 489.91282051282053,944.8051282051282 610,951 C 730.0871794871795,957.1948717948718 889.4666666666665,935.8666666666667 1011,937 C 1132.5333333333335,938.1333333333333 1216.220512820513,961.7282051282051 1303,948 C 1389.779487179487,934.2717948717949 1479.6512820512821,883.2205128205128 1583,869 C 1686.3487179487179,854.7794871794872 1803.174358974359,877.3897435897436 1920,900 C 1920,900 1920,1080 1920,1080 Z" fill="#3d1053" opacity="0.49999999999999994"/></svg>